<svg width="512" height="512" version="1.1" xmlns="http://www.w3.org/2000/svg" desc="Created with imagetracer.js version 1.2.6" ><path fill="rgb(0,0,0)" stroke="rgb(0,0,0)" stroke-width="1" opacity="0.8549019607843137" d="M 241.5 0 L 253 0.5 L 241.5 1 L 241.5 0 Z " /><path fill="rgb(0,0,0)" stroke="rgb(0,0,0)" stroke-width="1" opacity="0.8549019607843137" d="M 259.5 0 L 271 0.5 L 259.5 1 L 259.5 0 Z " /><path fill="rgb(0,0,0)" stroke="rgb(0,0,0)" stroke-width="1" opacity="0.8549019607843137" d="M 229.5 1 L 233 1.5 L 229.5 2 L 229.5 1 Z " /><path fill="rgb(0,0,0)" stroke="rgb(0,0,0)" stroke-width="1" opacity="0.8549019607843137" d="M 279.5 1 L 283 1.5 L 279.5 2 L 279.5 1 Z " /><path fill="rgb(0,0,0)" stroke="rgb(0,0,0)" stroke-width="1" opacity="0.8549019607843137" d="M 221.5 2 L 224 2.5 L 221.5 3 L 221.5 2 Z " /><path fill="rgb(0,0,0)" stroke="rgb(0,0,0)" stroke-width="1" opacity="0.8549019607843137" d="M 288.5 2 L 291 2.5 L 288.5 3 L 288.5 2 Z " /><path fill="rgb(0,0,0)" stroke="rgb(0,0,0)" stroke-width="1" opacity="0.8549019607843137" d="M 113.5 43 L 112.5 45 L 113.5 43 Z " /><path fill="rgb(0,0,0)" stroke="rgb(0,0,0)" stroke-width="1" opacity="0.8549019607843137" d="M 398.5 43 L 399.5 45 L 398.5 43 Z " /><path fill="rgb(0,0,0)" stroke="rgb(0,0,0)" stroke-width="1" opacity="0.8549019607843137" d="M 109.5 46 L 108.5 48 L 109.5 46 Z " /><path fill="rgb(0,0,0)" stroke="rgb(0,0,0)" stroke-width="1" opacity="0.8549019607843137" d="M 402.5 46 L 403.5 48 L 402.5 46 Z " /><path fill="rgb(0,0,0)" stroke="rgb(0,0,0)" stroke-width="1" opacity="0.8549019607843137" d="M 106.5 48 L 105.5 50 L 106.5 48 Z " /><path fill="rgb(0,0,0)" stroke="rgb(0,0,0)" stroke-width="1" opacity="0.8549019607843137" d="M 405.5 48 L 406.5 50 L 405.5 48 Z " /><path fill="rgb(0,0,0)" stroke="rgb(0,0,0)" stroke-width="1" opacity="0.8549019607843137" d="M 102.5 51 L 101.5 53 L 102.5 51 Z " /><path fill="rgb(0,0,0)" stroke="rgb(0,0,0)" stroke-width="1" opacity="0.8549019607843137" d="M 409.5 51 L 410.5 53 L 409.5 51 Z " /><path fill="rgb(0,0,0)" stroke="rgb(0,0,0)" stroke-width="1" opacity="0.8549019607843137" d="M 98.5 54 L 96.5 57 L 98.5 54 Z " /><path fill="rgb(0,0,0)" stroke="rgb(0,0,0)" stroke-width="1" opacity="0.8549019607843137" d="M 413.5 54 L 415.5 57 L 413.5 54 Z " /><path fill="rgb(0,0,0)" stroke="rgb(0,0,0)" stroke-width="1" opacity="0.8549019607843137" d="M 93.5 58 L 91.5 61 L 93.5 58 Z " /><path fill="rgb(0,0,0)" stroke="rgb(0,0,0)" stroke-width="1" opacity="0.8549019607843137" d="M 418.5 58 L 420.5 61 L 418.5 58 Z " /><path fill="rgb(0,0,0)" stroke="rgb(0,0,0)" stroke-width="1" opacity="0.8549019607843137" d="M 86.5 64 L 81.5 70 L 86.5 64 Z " /><path fill="rgb(0,0,0)" stroke="rgb(0,0,0)" stroke-width="1" opacity="0.8549019607843137" d="M 425.5 64 L 430.5 70 L 425.5 64 Z " /><path fill="rgb(0,0,0)" stroke="rgb(0,0,0)" stroke-width="1" opacity="0.8549019607843137" d="M 69.5 81 L 64.5 87 L 69.5 81 Z " /><path fill="rgb(0,0,0)" stroke="rgb(0,0,0)" stroke-width="1" opacity="0.8549019607843137" d="M 442.5 81 L 447.5 87 L 442.5 81 Z " /><path fill="rgb(0,0,0)" stroke="rgb(0,0,0)" stroke-width="1" opacity="0.8549019607843137" d="M 60.5 91 L 58.5 94 L 60.5 91 Z " /><path fill="rgb(0,0,0)" stroke="rgb(0,0,0)" stroke-width="1" opacity="0.8549019607843137" d="M 451.5 91 L 453.5 94 L 451.5 91 Z " /><path fill="rgb(0,0,0)" stroke="rgb(0,0,0)" stroke-width="1" opacity="0.8549019607843137" d="M 56.5 96 L 54.5 99 L 56.5 96 Z " /><path fill="rgb(0,0,0)" stroke="rgb(0,0,0)" stroke-width="1" opacity="0.8549019607843137" d="M 455.5 96 L 457.5 99 L 455.5 96 Z " /><path fill="rgb(0,0,0)" stroke="rgb(0,0,0)" stroke-width="1" opacity="0.8549019607843137" d="M 52.5 101 L 51.5 103 L 52.5 101 Z " /><path fill="rgb(0,0,0)" stroke="rgb(0,0,0)" stroke-width="1" opacity="0.8549019607843137" d="M 459.5 101 L 460.5 103 L 459.5 101 Z " /><path fill="rgb(0,0,0)" stroke="rgb(0,0,0)" stroke-width="1" opacity="0.8549019607843137" d="M 49.5 105 L 48.5 107 L 49.5 105 Z " /><path fill="rgb(0,0,0)" stroke="rgb(0,0,0)" stroke-width="1" opacity="0.8549019607843137" d="M 462.5 105 L 463.5 107 L 462.5 105 Z " /><path fill="rgb(0,0,0)" stroke="rgb(0,0,0)" stroke-width="1" opacity="0.8549019607843137" d="M 47.5 108 L 46.5 110 L 47.5 108 Z " /><path fill="rgb(0,0,0)" stroke="rgb(0,0,0)" stroke-width="1" opacity="0.8549019607843137" d="M 464.5 108 L 465.5 110 L 464.5 108 Z " /><path fill="rgb(0,0,0)" stroke="rgb(0,0,0)" stroke-width="1" opacity="0.8549019607843137" d="M 44.5 112 L 43.5 114 L 44.5 112 Z " /><path fill="rgb(0,0,0)" stroke="rgb(0,0,0)" stroke-width="1" opacity="0.8549019607843137" d="M 467.5 112 L 468.5 114 L 467.5 112 Z " /><path fill="rgb(0,0,0)" stroke="rgb(0,0,0)" stroke-width="1" opacity="0.8549019607843137" d="M 225.5 131 L 226.5 133 L 225.5 131 Z " /><path fill="rgb(0,0,0)" stroke="rgb(0,0,0)" stroke-width="1" opacity="0.8549019607843137" d="M 198.5 133 L 197.5 135 L 198.5 133 Z " /><path fill="rgb(0,0,0)" stroke="rgb(0,0,0)" stroke-width="1" opacity="0.8549019607843137" d="M 195.5 161 L 196.5 163 L 195.5 161 Z " /><path fill="rgb(0,0,0)" stroke="rgb(0,0,0)" stroke-width="1" opacity="0.8549019607843137" d="M 2.5 221 L 3 223.5 L 2 223.5 L 2.5 221 Z " /><path fill="rgb(0,0,0)" stroke="rgb(0,0,0)" stroke-width="1" opacity="0.8549019607843137" d="M 509.5 221 L 510 223.5 L 509 223.5 L 509.5 221 Z " /><path fill="rgb(0,0,0)" stroke="rgb(0,0,0)" stroke-width="1" opacity="0.8549019607843137" d="M 1.5 229 L 2 232.5 L 1 232.5 L 1.5 229 Z " /><path fill="rgb(0,0,0)" stroke="rgb(0,0,0)" stroke-width="1" opacity="0.8549019607843137" d="M 510.5 229 L 511 232.5 L 510 232.5 L 510.5 229 Z " /><path fill="rgb(0,0,0)" stroke="rgb(0,0,0)" stroke-width="1" opacity="0.8549019607843137" d="M 0.5 241 L 1 252.5 L 0 252.5 L 0.5 241 Z " /><path fill="rgb(0,0,0)" stroke="rgb(0,0,0)" stroke-width="1" opacity="0.8549019607843137" d="M 511.5 241 L 512 252.5 L 511 252.5 L 511.5 241 Z " /><path fill="rgb(0,0,0)" stroke="rgb(0,0,0)" stroke-width="1" opacity="0.8549019607843137" d="M 336.5 242 L 337.5 244 L 336.5 242 Z " /><path fill="rgb(0,0,0)" stroke="rgb(0,0,0)" stroke-width="1" opacity="0.8549019607843137" d="M 341.5 253 L 342 258.5 L 341 258.5 L 341.5 253 Z " /><path fill="rgb(0,0,0)" stroke="rgb(0,0,0)" stroke-width="1" opacity="0.8549019607843137" d="M 0.5 259 L 1 270.5 L 0 270.5 L 0.5 259 Z " /><path fill="rgb(0,0,0)" stroke="rgb(0,0,0)" stroke-width="1" opacity="0.8549019607843137" d="M 511.5 259 L 512 270.5 L 511 270.5 L 511.5 259 Z " /><path fill="rgb(0,0,0)" stroke="rgb(0,0,0)" stroke-width="1" opacity="0.8549019607843137" d="M 337.5 268 L 336.5 270 L 337.5 268 Z " /><path fill="rgb(0,0,0)" stroke="rgb(0,0,0)" stroke-width="1" opacity="0.8549019607843137" d="M 1.5 279 L 2 282.5 L 1 282.5 L 1.5 279 Z " /><path fill="rgb(0,0,0)" stroke="rgb(0,0,0)" stroke-width="1" opacity="0.8549019607843137" d="M 510.5 279 L 511 282.5 L 510 282.5 L 510.5 279 Z " /><path fill="rgb(0,0,0)" stroke="rgb(0,0,0)" stroke-width="1" opacity="0.8549019607843137" d="M 2.5 288 L 3 290.5 L 2 290.5 L 2.5 288 Z " /><path fill="rgb(0,0,0)" stroke="rgb(0,0,0)" stroke-width="1" opacity="0.8549019607843137" d="M 509.5 288 L 510 290.5 L 509 290.5 L 509.5 288 Z " /><path fill="rgb(0,0,0)" stroke="rgb(0,0,0)" stroke-width="1" opacity="0.8549019607843137" d="M 196.5 349 L 195.5 351 L 196.5 349 Z " /><path fill="rgb(0,0,0)" stroke="rgb(0,0,0)" stroke-width="1" opacity="0.8549019607843137" d="M 197.5 377 L 198.5 379 L 197.5 377 Z " /><path fill="rgb(0,0,0)" stroke="rgb(0,0,0)" stroke-width="1" opacity="0.8549019607843137" d="M 226.5 379 L 225.5 381 L 226.5 379 Z " /><path fill="rgb(0,0,0)" stroke="rgb(0,0,0)" stroke-width="1" opacity="0.8549019607843137" d="M 43.5 398 L 44.5 400 L 43.5 398 Z " /><path fill="rgb(0,0,0)" stroke="rgb(0,0,0)" stroke-width="1" opacity="0.8549019607843137" d="M 468.5 398 L 467.5 400 L 468.5 398 Z " /><path fill="rgb(0,0,0)" stroke="rgb(0,0,0)" stroke-width="1" opacity="0.8549019607843137" d="M 46.5 402 L 47.5 404 L 46.5 402 Z " /><path fill="rgb(0,0,0)" stroke="rgb(0,0,0)" stroke-width="1" opacity="0.8549019607843137" d="M 465.5 402 L 464.5 404 L 465.5 402 Z " /><path fill="rgb(0,0,0)" stroke="rgb(0,0,0)" stroke-width="1" opacity="0.8549019607843137" d="M 48.5 405 L 49.5 407 L 48.5 405 Z " /><path fill="rgb(0,0,0)" stroke="rgb(0,0,0)" stroke-width="1" opacity="0.8549019607843137" d="M 463.5 405 L 462.5 407 L 463.5 405 Z " /><path fill="rgb(0,0,0)" stroke="rgb(0,0,0)" stroke-width="1" opacity="0.8549019607843137" d="M 51.5 409 L 52.5 411 L 51.5 409 Z " /><path fill="rgb(0,0,0)" stroke="rgb(0,0,0)" stroke-width="1" opacity="0.8549019607843137" d="M 460.5 409 L 459.5 411 L 460.5 409 Z " /><path fill="rgb(0,0,0)" stroke="rgb(0,0,0)" stroke-width="1" opacity="0.8549019607843137" d="M 54.5 413 L 56.5 416 L 54.5 413 Z " /><path fill="rgb(0,0,0)" stroke="rgb(0,0,0)" stroke-width="1" opacity="0.8549019607843137" d="M 457.5 413 L 455.5 416 L 457.5 413 Z " /><path fill="rgb(0,0,0)" stroke="rgb(0,0,0)" stroke-width="1" opacity="0.8549019607843137" d="M 58.5 418 L 60.5 421 L 58.5 418 Z " /><path fill="rgb(0,0,0)" stroke="rgb(0,0,0)" stroke-width="1" opacity="0.8549019607843137" d="M 453.5 418 L 451.5 421 L 453.5 418 Z " /><path fill="rgb(0,0,0)" stroke="rgb(0,0,0)" stroke-width="1" opacity="0.8549019607843137" d="M 64.5 425 L 69.5 431 L 64.5 425 Z " /><path fill="rgb(0,0,0)" stroke="rgb(0,0,0)" stroke-width="1" opacity="0.8549019607843137" d="M 447.5 425 L 442.5 431 L 447.5 425 Z " /><path fill="rgb(0,0,0)" stroke="rgb(0,0,0)" stroke-width="1" opacity="0.8549019607843137" d="M 81.5 442 L 86.5 448 L 81.5 442 Z " /><path fill="rgb(0,0,0)" stroke="rgb(0,0,0)" stroke-width="1" opacity="0.8549019607843137" d="M 430.5 442 L 425.5 448 L 430.5 442 Z " /><path fill="rgb(0,0,0)" stroke="rgb(0,0,0)" stroke-width="1" opacity="0.8549019607843137" d="M 91.5 451 L 93.5 454 L 91.5 451 Z " /><path fill="rgb(0,0,0)" stroke="rgb(0,0,0)" stroke-width="1" opacity="0.8549019607843137" d="M 420.5 451 L 418.5 454 L 420.5 451 Z " /><path fill="rgb(0,0,0)" stroke="rgb(0,0,0)" stroke-width="1" opacity="0.8549019607843137" d="M 96.5 455 L 98.5 458 L 96.5 455 Z " /><path fill="rgb(0,0,0)" stroke="rgb(0,0,0)" stroke-width="1" opacity="0.8549019607843137" d="M 415.5 455 L 413.5 458 L 415.5 455 Z " /><path fill="rgb(0,0,0)" stroke="rgb(0,0,0)" stroke-width="1" opacity="0.8549019607843137" d="M 101.5 459 L 102.5 461 L 101.5 459 Z " /><path fill="rgb(0,0,0)" stroke="rgb(0,0,0)" stroke-width="1" opacity="0.8549019607843137" d="M 410.5 459 L 409.5 461 L 410.5 459 Z " /><path fill="rgb(0,0,0)" stroke="rgb(0,0,0)" stroke-width="1" opacity="0.8549019607843137" d="M 105.5 462 L 106.5 464 L 105.5 462 Z " /><path fill="rgb(0,0,0)" stroke="rgb(0,0,0)" stroke-width="1" opacity="0.8549019607843137" d="M 406.5 462 L 405.5 464 L 406.5 462 Z " /><path fill="rgb(0,0,0)" stroke="rgb(0,0,0)" stroke-width="1" opacity="0.8549019607843137" d="M 108.5 464 L 109.5 466 L 108.5 464 Z " /><path fill="rgb(0,0,0)" stroke="rgb(0,0,0)" stroke-width="1" opacity="0.8549019607843137" d="M 403.5 464 L 402.5 466 L 403.5 464 Z " /><path fill="rgb(0,0,0)" stroke="rgb(0,0,0)" stroke-width="1" opacity="0.8549019607843137" d="M 112.5 467 L 113.5 469 L 112.5 467 Z " /><path fill="rgb(0,0,0)" stroke="rgb(0,0,0)" stroke-width="1" opacity="0.8549019607843137" d="M 399.5 467 L 398.5 469 L 399.5 467 Z " /><path fill="rgb(0,0,0)" stroke="rgb(0,0,0)" stroke-width="1" opacity="0.8549019607843137" d="M 221.5 509 L 224 509.5 L 221.5 510 L 221.5 509 Z " /><path fill="rgb(0,0,0)" stroke="rgb(0,0,0)" stroke-width="1" opacity="0.8549019607843137" d="M 288.5 509 L 291 509.5 L 288.5 510 L 288.5 509 Z " /><path fill="rgb(0,0,0)" stroke="rgb(0,0,0)" stroke-width="1" opacity="0.8549019607843137" d="M 229.5 510 L 233 510.5 L 229.5 511 L 229.5 510 Z " /><path fill="rgb(0,0,0)" stroke="rgb(0,0,0)" stroke-width="1" opacity="0.8549019607843137" d="M 279.5 510 L 283 510.5 L 279.5 511 L 279.5 510 Z " /><path fill="rgb(0,0,0)" stroke="rgb(0,0,0)" stroke-width="1" opacity="0.8549019607843137" d="M 241.5 511 L 253 511.5 L 241.5 512 L 241.5 511 Z " /><path fill="rgb(0,0,0)" stroke="rgb(0,0,0)" stroke-width="1" opacity="0.8549019607843137" d="M 259.5 511 L 271 511.5 L 259.5 512 L 259.5 511 Z " /><path fill="rgb(0,0,0)" stroke="rgb(0,0,0)" stroke-width="1" opacity="1" d="M 253.5 0 Q 258.3 -1.3 259.5 1 L 278.5 1 L 279.5 2 L 287.5 2 L 288.5 3 L 306.5 5 L 333.5 12 L 352.5 19 Q 405.5 41.5 442 80.5 Q 475.6 115.4 495 164.5 L 504 192.5 L 509 216.5 L 510 232.5 L 511 233.5 L 511 252.5 Q 513.3 253.7 512 258.5 L 511 259.5 L 511 278.5 L 510 279.5 L 510 287.5 L 509 288.5 L 507 306.5 L 500 333.5 L 490 359.5 Q 467.9 407.9 431.5 442 Q 396.6 475.6 347.5 495 L 319.5 504 L 295.5 509 L 279.5 510 L 278.5 511 L 259.5 511 Q 258.3 513.3 253.5 512 L 252.5 511 L 233.5 511 L 232.5 510 L 224.5 510 L 223.5 509 L 205.5 507 L 178.5 500 L 152.5 490 Q 104.1 467.9 70 431.5 Q 36.4 396.6 17 347.5 L 8 319.5 L 3 295.5 L 2 279.5 L 1 278.5 L 1 259.5 Q -1.3 258.3 0 253.5 L 1 252.5 L 1 233.5 L 2 232.5 L 2 224.5 L 3 223.5 L 5 205.5 L 12 178.5 L 22 152.5 Q 44.1 104.1 80.5 70 Q 113.7 38.2 159.5 19 L 178.5 12 L 205.5 5 L 223.5 3 L 224.5 2 L 232.5 2 L 233.5 1 L 252.5 1 L 253.5 0 Z M 208 128 L 199 133 L 192 144 Q 190 156 195 162 L 289 256 L 195 351 L 192 358 L 192 369 L 197 378 L 208 384 Q 220 386 226 381 L 338 269 L 342 259 Q 342 249 338 244 L 226 131 Q 220 126 208 128 Z " /><path fill="rgb(0,0,0)" stroke="rgb(0,0,0)" stroke-width="1" opacity="0.23921568627450981" d="M 236.5 0 L 241 0.5 L 236.5 1 L 236.5 0 Z " /><path fill="rgb(0,0,0)" stroke="rgb(0,0,0)" stroke-width="1" opacity="0.23921568627450981" d="M 271.5 0 L 276 0.5 L 271.5 1 L 271.5 0 Z " /><path fill="rgb(0,0,0)" stroke="rgb(0,0,0)" stroke-width="1" opacity="0.23921568627450981" d="M 225.5 1 L 229 1.5 L 225.5 2 L 225.5 1 Z " /><path fill="rgb(0,0,0)" stroke="rgb(0,0,0)" stroke-width="1" opacity="0.23921568627450981" d="M 283.5 1 L 287 1.5 L 283.5 2 L 283.5 1 Z " /><path fill="rgb(0,0,0)" stroke="rgb(0,0,0)" stroke-width="1" opacity="0.23921568627450981" d="M 218.5 2 L 221 2.5 L 218.5 3 L 218.5 2 Z " /><path fill="rgb(0,0,0)" stroke="rgb(0,0,0)" stroke-width="1" opacity="0.23921568627450981" d="M 291.5 2 L 294 2.5 L 291.5 3 L 291.5 2 Z " /><path fill="rgb(0,0,0)" stroke="rgb(0,0,0)" stroke-width="1" opacity="0.23921568627450981" d="M 206.5 4 L 209 4.5 L 206.5 5 L 206.5 4 Z " /><path fill="rgb(0,0,0)" stroke="rgb(0,0,0)" stroke-width="1" opacity="0.23921568627450981" d="M 303.5 4 L 306 4.5 L 303.5 5 L 303.5 4 Z " /><path fill="rgb(0,0,0)" stroke="rgb(0,0,0)" stroke-width="1" opacity="0.23921568627450981" d="M 125.5 35 L 124.5 37 L 125.5 35 Z " /><path fill="rgb(0,0,0)" stroke="rgb(0,0,0)" stroke-width="1" opacity="0.23921568627450981" d="M 386.5 35 L 387.5 37 L 386.5 35 Z " /><path fill="rgb(0,0,0)" stroke="rgb(0,0,0)" stroke-width="1" opacity="0.23921568627450981" d="M 117.5 40 L 116.5 42 L 117.5 40 Z " /><path fill="rgb(0,0,0)" stroke="rgb(0,0,0)" stroke-width="1" opacity="0.23921568627450981" d="M 394.5 40 L 395.5 42 L 394.5 40 Z " /><path fill="rgb(0,0,0)" stroke="rgb(0,0,0)" stroke-width="1" opacity="0.23921568627450981" d="M 111.5 44 L 110.5 46 L 111.5 44 Z " /><path fill="rgb(0,0,0)" stroke="rgb(0,0,0)" stroke-width="1" opacity="0.23921568627450981" d="M 400.5 44 L 401.5 46 L 400.5 44 Z " /><path fill="rgb(0,0,0)" stroke="rgb(0,0,0)" stroke-width="1" opacity="0.23921568627450981" d="M 104.5 49 L 103.5 51 L 104.5 49 Z " /><path fill="rgb(0,0,0)" stroke="rgb(0,0,0)" stroke-width="1" opacity="0.23921568627450981" d="M 407.5 49 L 408.5 51 L 407.5 49 Z " /><path fill="rgb(0,0,0)" stroke="rgb(0,0,0)" stroke-width="1" opacity="0.23921568627450981" d="M 100.5 52 L 99.5 54 L 100.5 52 Z " /><path fill="rgb(0,0,0)" stroke="rgb(0,0,0)" stroke-width="1" opacity="0.23921568627450981" d="M 411.5 52 L 412.5 54 L 411.5 52 Z " /><path fill="rgb(0,0,0)" stroke="rgb(0,0,0)" stroke-width="1" opacity="0.23921568627450981" d="M 95.5 56 L 94.5 58 L 95.5 56 Z " /><path fill="rgb(0,0,0)" stroke="rgb(0,0,0)" stroke-width="1" opacity="0.23921568627450981" d="M 416.5 56 L 417.5 58 L 416.5 56 Z " /><path fill="rgb(0,0,0)" stroke="rgb(0,0,0)" stroke-width="1" opacity="0.23921568627450981" d="M 90.5 60 L 87.5 64 L 90.5 60 Z " /><path fill="rgb(0,0,0)" stroke="rgb(0,0,0)" stroke-width="1" opacity="0.23921568627450981" d="M 421.5 60 L 424.5 64 L 421.5 60 Z " /><path fill="rgb(0,0,0)" stroke="rgb(0,0,0)" stroke-width="1" opacity="0.23921568627450981" d="M 82.5 67 L 67.5 83 L 82.5 67 Z " /><path fill="rgb(0,0,0)" stroke="rgb(0,0,0)" stroke-width="1" opacity="0.23921568627450981" d="M 429.5 67 L 444.5 83 L 429.5 67 Z " /><path fill="rgb(0,0,0)" stroke="rgb(0,0,0)" stroke-width="1" opacity="0.23921568627450981" d="M 63.5 87 L 60.5 91 L 63.5 87 Z " /><path fill="rgb(0,0,0)" stroke="rgb(0,0,0)" stroke-width="1" opacity="0.23921568627450981" d="M 448.5 87 L 451.5 91 L 448.5 87 Z " /><path fill="rgb(0,0,0)" stroke="rgb(0,0,0)" stroke-width="1" opacity="0.23921568627450981" d="M 57.5 94 L 56.5 96 L 57.5 94 Z " /><path fill="rgb(0,0,0)" stroke="rgb(0,0,0)" stroke-width="1" opacity="0.23921568627450981" d="M 454.5 94 L 455.5 96 L 454.5 94 Z " /><path fill="rgb(0,0,0)" stroke="rgb(0,0,0)" stroke-width="1" opacity="0.23921568627450981" d="M 53.5 99 L 52.5 101 L 53.5 99 Z " /><path fill="rgb(0,0,0)" stroke="rgb(0,0,0)" stroke-width="1" opacity="0.23921568627450981" d="M 458.5 99 L 459.5 101 L 458.5 99 Z " /><path fill="rgb(0,0,0)" stroke="rgb(0,0,0)" stroke-width="1" opacity="0.23921568627450981" d="M 50.5 103 L 49.5 105 L 50.5 103 Z " /><path fill="rgb(0,0,0)" stroke="rgb(0,0,0)" stroke-width="1" opacity="0.23921568627450981" d="M 461.5 103 L 462.5 105 L 461.5 103 Z " /><path fill="rgb(0,0,0)" stroke="rgb(0,0,0)" stroke-width="1" opacity="0.23921568627450981" d="M 45.5 110 L 44.5 112 L 45.5 110 Z " /><path fill="rgb(0,0,0)" stroke="rgb(0,0,0)" stroke-width="1" opacity="0.23921568627450981" d="M 466.5 110 L 467.5 112 L 466.5 110 Z " /><path fill="rgb(0,0,0)" stroke="rgb(0,0,0)" stroke-width="1" opacity="0.23921568627450981" d="M 41.5 116 L 40.5 118 L 41.5 116 Z " /><path fill="rgb(0,0,0)" stroke="rgb(0,0,0)" stroke-width="1" opacity="0.23921568627450981" d="M 470.5 116 L 471.5 118 L 470.5 116 Z " /><path fill="rgb(0,0,0)" stroke="rgb(0,0,0)" stroke-width="1" opacity="0.23921568627450981" d="M 36.5 124 L 35.5 126 L 36.5 124 Z " /><path fill="rgb(0,0,0)" stroke="rgb(0,0,0)" stroke-width="1" opacity="0.23921568627450981" d="M 475.5 124 L 476.5 126 L 475.5 124 Z " /><path fill="rgb(0,0,0)" stroke="rgb(0,0,0)" stroke-width="1" opacity="0.23921568627450981" d="M 209.5 128 L 212 128.5 L 209.5 129 L 209.5 128 Z " /><path fill="rgb(0,0,0)" stroke="rgb(0,0,0)" stroke-width="1" opacity="0.23921568627450981" d="M 215.5 128 L 218 128.5 L 215.5 129 L 215.5 128 Z " /><path fill="rgb(0,0,0)" stroke="rgb(0,0,0)" stroke-width="1" opacity="0.23921568627450981" d="M 200.5 132 L 196.5 137 L 200.5 132 Z " /><path fill="rgb(0,0,0)" stroke="rgb(0,0,0)" stroke-width="1" opacity="0.23921568627450981" d="M 227.5 133 L 335.5 242 L 227.5 133 Z " /><path fill="rgb(0,0,0)" stroke="rgb(0,0,0)" stroke-width="1" opacity="0.23921568627450981" d="M 192.5 145 L 193 147.5 L 192 147.5 L 192.5 145 Z " /><path fill="rgb(0,0,0)" stroke="rgb(0,0,0)" stroke-width="1" opacity="0.23921568627450981" d="M 192.5 151 L 193 153.5 L 192 153.5 L 192.5 151 Z " /><path fill="rgb(0,0,0)" stroke="rgb(0,0,0)" stroke-width="1" opacity="0.23921568627450981" d="M 197.5 163 L 290 256.5 L 197 348.5 L 289 255.5 L 197.5 163 Z " /><path fill="rgb(0,0,0)" stroke="rgb(0,0,0)" stroke-width="1" opacity="0.23921568627450981" d="M 4.5 206 L 5 208.5 L 4 208.5 L 4.5 206 Z " /><path fill="rgb(0,0,0)" stroke="rgb(0,0,0)" stroke-width="1" opacity="0.23921568627450981" d="M 507.5 206 L 508 208.5 L 507 208.5 L 507.5 206 Z " /><path fill="rgb(0,0,0)" stroke="rgb(0,0,0)" stroke-width="1" opacity="0.23921568627450981" d="M 2.5 218 L 3 220.5 L 2 220.5 L 2.5 218 Z " /><path fill="rgb(0,0,0)" stroke="rgb(0,0,0)" stroke-width="1" opacity="0.23921568627450981" d="M 509.5 218 L 510 220.5 L 509 220.5 L 509.5 218 Z " /><path fill="rgb(0,0,0)" stroke="rgb(0,0,0)" stroke-width="1" opacity="0.23921568627450981" d="M 1.5 225 L 2 228.5 L 1 228.5 L 1.5 225 Z " /><path fill="rgb(0,0,0)" stroke="rgb(0,0,0)" stroke-width="1" opacity="0.23921568627450981" d="M 510.5 225 L 511 228.5 L 510 228.5 L 510.5 225 Z " /><path fill="rgb(0,0,0)" stroke="rgb(0,0,0)" stroke-width="1" opacity="0.23921568627450981" d="M 0.5 236 L 1 240.5 L 0 240.5 L 0.5 236 Z " /><path fill="rgb(0,0,0)" stroke="rgb(0,0,0)" stroke-width="1" opacity="0.23921568627450981" d="M 511.5 236 L 512 240.5 L 511 240.5 L 511.5 236 Z " /><path fill="rgb(0,0,0)" stroke="rgb(0,0,0)" stroke-width="1" opacity="0.23921568627450981" d="M 335.5 270 L 227.5 379 L 335.5 270 Z " /><path fill="rgb(0,0,0)" stroke="rgb(0,0,0)" stroke-width="1" opacity="0.23921568627450981" d="M 0.5 271 L 1 275.5 L 0 275.5 L 0.5 271 Z " /><path fill="rgb(0,0,0)" stroke="rgb(0,0,0)" stroke-width="1" opacity="0.23921568627450981" d="M 511.5 271 L 512 275.5 L 511 275.5 L 511.5 271 Z " /><path fill="rgb(0,0,0)" stroke="rgb(0,0,0)" stroke-width="1" opacity="0.23921568627450981" d="M 1.5 283 L 2 286.5 L 1 286.5 L 1.5 283 Z " /><path fill="rgb(0,0,0)" stroke="rgb(0,0,0)" stroke-width="1" opacity="0.23921568627450981" d="M 510.5 283 L 511 286.5 L 510 286.5 L 510.5 283 Z " /><path fill="rgb(0,0,0)" stroke="rgb(0,0,0)" stroke-width="1" opacity="0.23921568627450981" d="M 2.5 291 L 3 293.5 L 2 293.5 L 2.5 291 Z " /><path fill="rgb(0,0,0)" stroke="rgb(0,0,0)" stroke-width="1" opacity="0.23921568627450981" d="M 509.5 291 L 510 293.5 L 509 293.5 L 509.5 291 Z " /><path fill="rgb(0,0,0)" stroke="rgb(0,0,0)" stroke-width="1" opacity="0.23921568627450981" d="M 4.5 303 L 5 305.5 L 4 305.5 L 4.5 303 Z " /><path fill="rgb(0,0,0)" stroke="rgb(0,0,0)" stroke-width="1" opacity="0.23921568627450981" d="M 507.5 303 L 508 305.5 L 507 305.5 L 507.5 303 Z " /><path fill="rgb(0,0,0)" stroke="rgb(0,0,0)" stroke-width="1" opacity="0.23921568627450981" d="M 192.5 358 L 193 360.5 L 192 360.5 L 192.5 358 Z " /><path fill="rgb(0,0,0)" stroke="rgb(0,0,0)" stroke-width="1" opacity="0.23921568627450981" d="M 192.5 364 L 193 366.5 L 192 366.5 L 192.5 364 Z " /><path fill="rgb(0,0,0)" stroke="rgb(0,0,0)" stroke-width="1" opacity="0.23921568627450981" d="M 196.5 375 L 200.5 380 L 196.5 375 Z " /><path fill="rgb(0,0,0)" stroke="rgb(0,0,0)" stroke-width="1" opacity="0.23921568627450981" d="M 209.5 383 L 212 383.5 L 209.5 384 L 209.5 383 Z " /><path fill="rgb(0,0,0)" stroke="rgb(0,0,0)" stroke-width="1" opacity="0.23921568627450981" d="M 215.5 383 L 218 383.5 L 215.5 384 L 215.5 383 Z " /><path fill="rgb(0,0,0)" stroke="rgb(0,0,0)" stroke-width="1" opacity="0.23921568627450981" d="M 35.5 386 L 36.5 388 L 35.5 386 Z " /><path fill="rgb(0,0,0)" stroke="rgb(0,0,0)" stroke-width="1" opacity="0.23921568627450981" d="M 476.5 386 L 475.5 388 L 476.5 386 Z " /><path fill="rgb(0,0,0)" stroke="rgb(0,0,0)" stroke-width="1" opacity="0.23921568627450981" d="M 40.5 394 L 41.5 396 L 40.5 394 Z " /><path fill="rgb(0,0,0)" stroke="rgb(0,0,0)" stroke-width="1" opacity="0.23921568627450981" d="M 471.5 394 L 470.5 396 L 471.5 394 Z " /><path fill="rgb(0,0,0)" stroke="rgb(0,0,0)" stroke-width="1" opacity="0.23921568627450981" d="M 44.5 400 L 45.5 402 L 44.5 400 Z " /><path fill="rgb(0,0,0)" stroke="rgb(0,0,0)" stroke-width="1" opacity="0.23921568627450981" d="M 467.5 400 L 466.5 402 L 467.5 400 Z " /><path fill="rgb(0,0,0)" stroke="rgb(0,0,0)" stroke-width="1" opacity="0.23921568627450981" d="M 49.5 407 L 50.5 409 L 49.5 407 Z " /><path fill="rgb(0,0,0)" stroke="rgb(0,0,0)" stroke-width="1" opacity="0.23921568627450981" d="M 462.5 407 L 461.5 409 L 462.5 407 Z " /><path fill="rgb(0,0,0)" stroke="rgb(0,0,0)" stroke-width="1" opacity="0.23921568627450981" d="M 52.5 411 L 53.5 413 L 52.5 411 Z " /><path fill="rgb(0,0,0)" stroke="rgb(0,0,0)" stroke-width="1" opacity="0.23921568627450981" d="M 459.5 411 L 458.5 413 L 459.5 411 Z " /><path fill="rgb(0,0,0)" stroke="rgb(0,0,0)" stroke-width="1" opacity="0.23921568627450981" d="M 56.5 416 L 57.5 418 L 56.5 416 Z " /><path fill="rgb(0,0,0)" stroke="rgb(0,0,0)" stroke-width="1" opacity="0.23921568627450981" d="M 455.5 416 L 454.5 418 L 455.5 416 Z " /><path fill="rgb(0,0,0)" stroke="rgb(0,0,0)" stroke-width="1" opacity="0.23921568627450981" d="M 60.5 421 L 63.5 425 L 60.5 421 Z " /><path fill="rgb(0,0,0)" stroke="rgb(0,0,0)" stroke-width="1" opacity="0.23921568627450981" d="M 451.5 421 L 448.5 425 L 451.5 421 Z " /><path fill="rgb(0,0,0)" stroke="rgb(0,0,0)" stroke-width="1" opacity="0.23921568627450981" d="M 67.5 429 L 82.5 445 L 67.5 429 Z " /><path fill="rgb(0,0,0)" stroke="rgb(0,0,0)" stroke-width="1" opacity="0.23921568627450981" d="M 444.5 429 L 429.5 445 L 444.5 429 Z " /><path fill="rgb(0,0,0)" stroke="rgb(0,0,0)" stroke-width="1" opacity="0.23921568627450981" d="M 87.5 448 L 90.5 452 L 87.5 448 Z " /><path fill="rgb(0,0,0)" stroke="rgb(0,0,0)" stroke-width="1" opacity="0.23921568627450981" d="M 424.5 448 L 421.5 452 L 424.5 448 Z " /><path fill="rgb(0,0,0)" stroke="rgb(0,0,0)" stroke-width="1" opacity="0.23921568627450981" d="M 94.5 454 L 95.5 456 L 94.5 454 Z " /><path fill="rgb(0,0,0)" stroke="rgb(0,0,0)" stroke-width="1" opacity="0.23921568627450981" d="M 417.5 454 L 416.5 456 L 417.5 454 Z " /><path fill="rgb(0,0,0)" stroke="rgb(0,0,0)" stroke-width="1" opacity="0.23921568627450981" d="M 99.5 458 L 100.5 460 L 99.5 458 Z " /><path fill="rgb(0,0,0)" stroke="rgb(0,0,0)" stroke-width="1" opacity="0.23921568627450981" d="M 412.5 458 L 411.5 460 L 412.5 458 Z " /><path fill="rgb(0,0,0)" stroke="rgb(0,0,0)" stroke-width="1" opacity="0.23921568627450981" d="M 103.5 461 L 104.5 463 L 103.5 461 Z " /><path fill="rgb(0,0,0)" stroke="rgb(0,0,0)" stroke-width="1" opacity="0.23921568627450981" d="M 408.5 461 L 407.5 463 L 408.5 461 Z " /><path fill="rgb(0,0,0)" stroke="rgb(0,0,0)" stroke-width="1" opacity="0.23921568627450981" d="M 110.5 466 L 111.5 468 L 110.5 466 Z " /><path fill="rgb(0,0,0)" stroke="rgb(0,0,0)" stroke-width="1" opacity="0.23921568627450981" d="M 401.5 466 L 400.5 468 L 401.5 466 Z " /><path fill="rgb(0,0,0)" stroke="rgb(0,0,0)" stroke-width="1" opacity="0.23921568627450981" d="M 116.5 470 L 117.5 472 L 116.5 470 Z " /><path fill="rgb(0,0,0)" stroke="rgb(0,0,0)" stroke-width="1" opacity="0.23921568627450981" d="M 395.5 470 L 394.5 472 L 395.5 470 Z " /><path fill="rgb(0,0,0)" stroke="rgb(0,0,0)" stroke-width="1" opacity="0.23921568627450981" d="M 124.5 475 L 125.5 477 L 124.5 475 Z " /><path fill="rgb(0,0,0)" stroke="rgb(0,0,0)" stroke-width="1" opacity="0.23921568627450981" d="M 387.5 475 L 386.5 477 L 387.5 475 Z " /><path fill="rgb(0,0,0)" stroke="rgb(0,0,0)" stroke-width="1" opacity="0.23921568627450981" d="M 206.5 507 L 209 507.5 L 206.5 508 L 206.5 507 Z " /><path fill="rgb(0,0,0)" stroke="rgb(0,0,0)" stroke-width="1" opacity="0.23921568627450981" d="M 303.5 507 L 306 507.5 L 303.5 508 L 303.5 507 Z " /><path fill="rgb(0,0,0)" stroke="rgb(0,0,0)" stroke-width="1" opacity="0.23921568627450981" d="M 218.5 509 L 221 509.5 L 218.5 510 L 218.5 509 Z " /><path fill="rgb(0,0,0)" stroke="rgb(0,0,0)" stroke-width="1" opacity="0.23921568627450981" d="M 291.5 509 L 294 509.5 L 291.5 510 L 291.5 509 Z " /><path fill="rgb(0,0,0)" stroke="rgb(0,0,0)" stroke-width="1" opacity="0.23921568627450981" d="M 225.5 510 L 229 510.5 L 225.5 511 L 225.5 510 Z " /><path fill="rgb(0,0,0)" stroke="rgb(0,0,0)" stroke-width="1" opacity="0.23921568627450981" d="M 283.5 510 L 287 510.5 L 283.5 511 L 283.5 510 Z " /><path fill="rgb(0,0,0)" stroke="rgb(0,0,0)" stroke-width="1" opacity="0.23921568627450981" d="M 236.5 511 L 241 511.5 L 236.5 512 L 236.5 511 Z " /><path fill="rgb(0,0,0)" stroke="rgb(0,0,0)" stroke-width="1" opacity="0.23921568627450981" d="M 271.5 511 L 276 511.5 L 271.5 512 L 271.5 511 Z " /><path fill="rgb(0,0,0)" stroke="rgb(0,0,0)" stroke-width="1" opacity="0" d="M 0 0 L 236 0.5 L 218.5 2 L 189.5 8 L 150.5 22 Q 101.4 44.9 67 82.5 Q 39.8 111.8 22 150.5 L 8 189.5 L 2 218.5 L 0.5 236 L 0 0 Z " /><path fill="rgb(0,0,0)" stroke="rgb(0,0,0)" stroke-width="1" opacity="0" d="M 276.5 0 L 512 0 L 512 235.5 L 511 235.5 L 511 225.5 L 506 197.5 Q 499.9 172.1 490 150.5 Q 467.1 101.4 429.5 67 Q 400.2 39.8 361.5 22 L 322.5 8 L 293.5 2 L 276.5 1 L 276.5 0 Z " /><path fill="rgb(0,0,0)" stroke="rgb(0,0,0)" stroke-width="1" opacity="0" d="M 212.5 128 Q 220.8 128.2 225.5 132 L 338 244.5 L 341 252.5 L 341 259.5 L 338 267.5 L 225.5 380 Q 220.8 383.8 212.5 384 L 202.5 381 L 195 373.5 L 192 361.5 L 196 350.5 L 290 255.5 L 196 161.5 Q 192.2 156.8 192 148.5 L 195 138.5 L 202.5 131 L 212.5 128 Z " /><path fill="rgb(0,0,0)" stroke="rgb(0,0,0)" stroke-width="1" opacity="0" d="M 0.5 276 L 2 293.5 L 8 322.5 L 22 361.5 Q 44.9 410.6 82.5 445 Q 111.8 472.2 150.5 490 L 189.5 504 L 218.5 510 L 236 511.5 L 0 512 L 0.5 276 Z " /><path fill="rgb(0,0,0)" stroke="rgb(0,0,0)" stroke-width="1" opacity="0" d="M 511.5 276 L 512 512 L 276 511.5 L 293.5 510 L 322.5 504 L 361.5 490 Q 410.6 467.1 445 429.5 Q 472.2 400.2 490 361.5 L 504 322.5 L 510 293.5 L 511.5 276 Z " /></svg>